<svg width="53" height="53" viewBox="0 0 53 53" fill="none"
  xmlns="http://www.w3.org/2000/svg">
  <path d="M45.7126 14.1113V23.7175L52.2713 18.6826L45.7126 14.1113Z" fill="#242E45"/>
  <path d="M7.28745 14.1113L0.72876 18.6826L7.28745 23.7175V14.1113Z" fill="#242E45"/>
  <path d="M43.7249 25.2413V3.97501H9.2749V25.2413L26.4999 38.4913L43.7249 25.2413ZM15.8999 10.6H21.8624C22.4112 10.6 22.8562 11.045 22.8562 11.5938C22.8562 12.1426 22.4112 12.5876 21.8624 12.5876H15.8999C15.3511 12.5876 14.9061 12.1426 14.9061 11.5938C14.9061 11.045 15.3511 10.6 15.8999 10.6ZM15.8999 16.5625H37.1C37.6488 16.5625 38.0938 17.0074 38.0938 17.5563C38.0938 18.1051 37.6488 18.55 37.1 18.55H15.8999C15.3511 18.55 14.9061 18.1051 14.9061 17.5563C14.9061 17.0074 15.3511 16.5625 15.8999 16.5625ZM14.9061 23.5187C14.9061 22.9699 15.3511 22.5249 15.8999 22.5249H37.1C37.6488 22.5249 38.0938 22.9699 38.0938 23.5187C38.0938 24.0675 37.6488 24.5125 37.1 24.5125H15.8999C15.3511 24.5125 14.9061 24.0675 14.9061 23.5187Z" fill="#242E45"/>
  <path d="M0 20.5375V48.3626L19.2125 35.3776L0 20.5375Z" fill="#242E45"/>
  <path d="M33.7876 35.3776L53.0001 48.3626V20.5375L33.7876 35.3776Z" fill="#242E45"/>
  <path d="M27.0964 40.4787C26.7431 40.7438 26.2572 40.7438 25.9039 40.4787L20.9351 36.7024L2.51758 49.025H50.4826L32.1314 36.6362L27.0964 40.4787Z" fill="#242E45"/>
</svg>
